<svg width="32" height="32" viewBox="0 0 32 32" fill="none" xmlns="http://www.w3.org/2000/svg">
<path d="M15.1376 0V5.07795H16.8624V0H15.1375H15.1376ZM8.09468 1.526L6.68156 2.51541L9.59364 6.67397L11.006 5.68453L8.09468 1.526ZM23.905 1.526L20.9937 5.68456L22.4063 6.674L25.3183 2.51541L23.9052 1.526H23.905ZM15.9996 6.46731C11.7803 6.46731 8.35983 9.02952 8.35983 12.1906L12.7004 25.3359H19.2996L23.6398 12.1906C23.6398 9.02957 20.2196 6.46731 16 6.46731H15.9996ZM2.279 7.99128L1.6897 9.61299L6.459 11.3494L7.0505 9.72843L2.2789 7.99128H2.279ZM29.7207 7.99128L24.949 9.72856L25.5385 11.3497L30.3102 9.61301L29.7207 7.99128ZM6.8201 15.4048L1.9161 16.7202L2.36106 18.385L7.26506 17.0715L6.82018 15.4048H6.8201ZM25.1796 15.4048L24.7349 17.0715L29.6389 18.3848L30.0836 16.7199L25.1796 15.4048V15.4048ZM12.6042 26.2942V28.5791H19.3959V26.2945H12.6042L12.6042 26.2942ZM12.6042 29.715V32H19.3959V29.7154H12.6042L12.6042 29.715Z" fill="white"/>
</svg>
