<svg width="28" height="28" viewBox="0 0 28 28" fill="none" xmlns="http://www.w3.org/2000/svg">
<path d="M1.5 11.5C2.475 6.73 6.0875 2.9125 10.7575 1.6125C11.15 1.50375 11.345 1.44875 11.4513 1.565C11.5575 1.6825 11.4788 1.875 11.3238 2.2625L10.25 4.625M16.5 1.5C21.27 2.475 25.0875 6.0875 26.3875 10.7575C26.4962 11.15 26.5512 11.345 26.435 11.4513C26.3175 11.5575 26.125 11.4788 25.7375 11.3238L23.375 10.25M26.5 16.5C25.525 21.27 21.9125 25.0875 17.2425 26.3875C16.85 26.4962 16.655 26.5512 16.5487 26.435C16.4425 26.3175 16.5212 26.125 16.6762 25.7375L17.75 23.375M11.5 26.5C6.73 25.525 2.9125 21.9125 1.6125 17.2425C1.50375 16.85 1.44875 16.655 1.565 16.5487C1.6825 16.4425 1.875 16.5212 2.2625 16.6762L4.625 17.75M9.76625 13.5812L14.14 7.96625C14.4825 7.5275 15.1238 7.80125 15.1238 8.38625V12.7312C15.1238 13.0812 15.3737 13.3663 15.685 13.3663H17.8125C18.295 13.3663 18.5525 14.0088 18.2338 14.4188L13.86 20.0337C13.5175 20.4725 12.8762 20.1987 12.8762 19.6137V15.2688C12.8762 14.9188 12.6263 14.6337 12.315 14.6337H10.1875C9.705 14.6337 9.44625 13.9912 9.76625 13.5812Z" stroke="white" stroke-width="1.5" stroke-linecap="round" stroke-linejoin="round"/>
</svg>
